<?xml version="1.0" standalone="no"?><!DOCTYPE svg PUBLIC "-//W3C//DTD SVG 1.1//EN" "http://www.w3.org/Graphics/SVG/1.1/DTD/svg11.dtd"><svg t="1627980671117" class="icon" viewBox="0 0 1024 1024" version="1.1" xmlns="http://www.w3.org/2000/svg" p-id="2416" xmlns:xlink="http://www.w3.org/1999/xlink" width="200" height="200"><defs><style type="text/css"></style></defs><path d="M811.296 205.12a592.064 592.064 0 0 1-264.704-92.032A64.48 64.48 0 0 0 512 103.04c-12 0-24.096 3.392-34.592 10.208a591.648 591.648 0 0 1-264.704 91.968 63.936 63.936 0 0 0-57.696 63.712v295.616c0 196.992 267.808 356.576 356.992 356.576 89.216 0 356.992-159.584 356.992-356.576V268.8a64 64 0 0 0-57.696-63.68z m-118.304 216.384l-226.176 226.304a32.224 32.224 0 0 1-45.312 0l-90.496-90.496a32.224 32.224 0 0 1 0-45.312 31.872 31.872 0 0 1 22.592-9.28c8.192 0 16.384 3.072 22.592 9.28l67.904 67.904 203.616-203.616c12.48-12.48 32.8-12.48 45.28 0 6.208 6.208 9.28 14.4 9.28 22.624a31.872 31.872 0 0 1-9.28 22.592z" fill="#ffffff" p-id="2417"></path></svg>