<svg t="1600762554316" class="icon" viewBox="0 0 1024 1024" version="1.1" xmlns="http://www.w3.org/2000/svg" p-id="14487" width="128" height="128"><path d="M488.96 537.6H248.32c-25.6 0-46.08-20.48-46.08-46.08s20.48-46.08 46.08-46.08h266.24c20.48 0 35.84 15.36 40.96 30.72 51.2-30.72 112.64-51.2 179.2-51.2 61.44 0 117.76 15.36 168.96 46.08V189.44c0-51.2-51.2-97.28-107.52-97.28h-204.8C576 35.84 524.8 0 468.48 0 407.04 0 360.96 35.84 345.6 92.16h-204.8C79.36 92.16 28.16 133.12 28.16 189.44v701.44c0 51.2 51.2 97.28 107.52 97.28H488.96c-51.2-61.44-87.04-138.24-87.04-220.16 0-92.16 30.72-168.96 87.04-230.4zM473.6 102.4c25.6 0 46.08 20.48 46.08 46.08s-20.48 46.08-46.08 46.08-46.08-20.48-46.08-46.08c-5.12-25.6 15.36-46.08 46.08-46.08zM238.08 291.84H668.16c25.6 0 46.08 20.48 46.08 46.08s-20.48 46.08-46.08 46.08H238.08c-20.48-5.12-35.84-25.6-35.84-46.08s15.36-40.96 35.84-46.08z" fill="" p-id="14488"></path><path d="M734.72 501.76c-143.36 0-261.12 117.76-261.12 261.12S591.36 1024 734.72 1024s261.12-117.76 261.12-261.12-112.64-261.12-261.12-261.12z m128 204.8l-128 143.36s-15.36 20.48-25.6 15.36c-10.24 0-97.28-81.92-97.28-81.92s-10.24-20.48 5.12-30.72c5.12-5.12 10.24-10.24 30.72-5.12l61.44 51.2 122.88-122.88s15.36-10.24 25.6 0 5.12 30.72 5.12 30.72z" fill="" p-id="14489"></path></svg>