<?xml version="1.0" standalone="no"?><!DOCTYPE svg PUBLIC "-//W3C//DTD SVG 1.1//EN" "http://www.w3.org/Graphics/SVG/1.1/DTD/svg11.dtd"><svg t="1627980661516" class="icon" viewBox="0 0 1024 1024" version="1.1" xmlns="http://www.w3.org/2000/svg" p-id="2288" xmlns:xlink="http://www.w3.org/1999/xlink" width="200" height="200"><defs><style type="text/css"></style></defs><path d="M512 96c112.064 0 202.912 91.104 202.912 203.456v79.456h40.864A140.384 140.384 0 0 1 896 519.424v268.064A140.384 140.384 0 0 1 755.776 928H268.224A140.384 140.384 0 0 1 128 787.488v-268.064a140.384 140.384 0 0 1 140.224-140.512h40.864V299.456c0-111.232 89.024-201.632 199.552-203.424L512 96z m0 468c-13.984 0-25.376 12.352-25.6 27.712v152.096c0 15.424 11.232 27.936 25.184 28.16l0.416 0.032c13.984 0 25.376-12.352 25.6-27.712v-152.096c0-15.584-11.456-28.192-25.6-28.192z m0-416c-70.72 0-128 68.576-128 153.184v80.8h256V301.184c0-83.744-56.16-151.808-125.888-153.152L512 148z" fill="#FFFFFF" p-id="2289"></path></svg>