<?xml version="1.0" encoding="UTF-8"?>
<svg width="16px" height="17px" viewBox="0 0 16 17" version="1.1" xmlns="http://www.w3.org/2000/svg" xmlns:xlink="http://www.w3.org/1999/xlink">
    <title>IT应用上线发布流程-05</title>
    <g id="门户系统PC端" stroke="none" stroke-width="1" fill="none" fill-rule="evenodd">
        <g id="运营管理系统工作台" transform="translate(-905.000000, -149.000000)" fill-rule="nonzero">
            <g id="IT应用上线发布流程-05" transform="translate(905.000000, 149.626667)">
                <rect id="矩形" fill="#000000" opacity="0" x="0" y="0.373333328" width="16" height="16"></rect>
                <path d="M13.9466667,3.34666666 L8.48,0.12 C8.18666667,-0.04 7.81333333,-0.04 7.54666667,0.12 L2.05333333,3.34666666 C1.76,3.50666666 1.6,3.82666666 1.6,4.14666666 L1.6,10.6 C1.6,10.92 1.78666667,11.24 2.05333333,11.4 L7.52,14.6266667 C7.65333333,14.7066667 7.84,14.76 8,14.76 C8.16,14.76 8.32,14.7066667 8.48,14.6266667 L13.9466667,11.4 C14.24,11.24 14.4,10.92 14.4,10.6 L14.4,4.14666666 C14.4,3.82666666 14.24,3.50666666 13.9466667,3.34666666 Z M10.9333333,7.69333333 C10.8266667,7.8 10.6933333,7.85333333 10.56,7.85333333 C10.4266667,7.85333333 10.2933333,7.8 10.1866667,7.69333333 L8.53333333,6.04 L8.53333333,9.96 C8.53333333,10.2533333 8.29333333,10.4933333 8,10.4933333 C7.70666667,10.4933333 7.46666667,10.2533333 7.46666667,9.96 L7.46666667,6.04 L5.84,7.66666666 C5.62666667,7.87999998 5.30666667,7.87999998 5.09333333,7.66666666 C4.88,7.45333333 4.88,7.13333333 5.09333333,6.92 L7.62666667,4.38666666 C7.84,4.17333333 8.16,4.17333333 8.37333333,4.38666666 L10.9066667,6.92 C11.12,7.13333333 11.12,7.48 10.9333333,7.69333333 Z" id="形状" fill="#1E65F0"></path>
            </g>
        </g>
    </g>
</svg>