<svg width="40" height="40" viewBox="0 0 40 40" xmlns="http://www.w3.org/2000/svg">
<path fill-rule="evenodd" clip-rule="evenodd" d="M17.4997 5.8335C16.5792 5.8335 15.833 6.57969 15.833 7.50016C15.833 8.42064 16.5792 9.16683 17.4997 9.16683H22.4997C23.4201 9.16683 24.1663 8.42064 24.1663 7.50016C24.1663 6.57969 23.4201 5.8335 22.4997 5.8335H17.4997ZM13.333 7.50016C13.333 5.19898 15.1985 3.3335 17.4997 3.3335H22.4997C24.8009 3.3335 26.6663 5.19898 26.6663 7.50016C26.6663 9.80135 24.8009 11.6668 22.4997 11.6668H17.4997C15.1985 11.6668 13.333 9.80135 13.333 7.50016Z"/>
<path d="M13.4108 6.72168C13.3599 6.98963 13.3333 7.26616 13.3333 7.54891C13.3333 8.13798 13.4488 8.70008 13.6583 9.21383C12.7724 9.24571 12.0152 9.29908 11.3513 9.38835C9.8131 9.59515 9.15478 9.95256 8.72038 10.3869C8.286 10.8213 7.92858 11.4797 7.72178 13.0179C7.50532 14.628 7.5 16.7865 7.5 19.9999V23.3332C7.5 26.5465 7.50532 28.7052 7.72178 30.3152C7.92858 31.8534 8.286 32.5117 8.72038 32.9462C9.15478 33.3805 9.8131 33.738 11.3513 33.9447C12.9614 34.1612 15.12 34.1665 18.3333 34.1665H21.6667C24.88 34.1665 27.0385 34.1612 28.6487 33.9447C30.1868 33.738 30.8452 33.3805 31.2797 32.9462C31.714 32.5117 32.0713 31.8534 32.2782 30.3152C32.4947 28.7052 32.5 26.5465 32.5 23.3332V19.9999C32.5 16.7865 32.4947 14.628 32.2782 13.0179C32.0713 11.4797 31.714 10.8213 31.2797 10.3869C30.8452 9.95256 30.1868 9.59515 28.6487 9.38835C27.9848 9.29908 27.2277 9.24571 26.3417 9.21383C26.5512 8.70008 26.6667 8.13798 26.6667 7.54891C26.6667 7.26616 26.64 6.98963 26.5892 6.72168C29.7555 6.8476 31.6893 7.26111 33.0473 8.61918C35 10.5718 35 13.7145 35 19.9999V23.3332C35 29.6185 35 32.7614 33.0473 34.7139C31.0948 36.6665 27.952 36.6665 21.6667 36.6665H18.3333C12.0479 36.6665 8.90525 36.6665 6.95262 34.7139C5 32.7614 5 29.6185 5 23.3332V19.9999C5 13.7145 5 10.5718 6.95262 8.61918C8.31068 7.26111 10.2444 6.8476 13.4108 6.72168Z"/>
<path fill-rule="evenodd" clip-rule="evenodd" d="M19.9992 17.1729C20.6895 17.1729 21.2492 17.7325 21.2492 18.4229V21.4122H24.2385C24.9289 21.4122 25.4885 21.9718 25.4885 22.6622C25.4885 23.3525 24.9289 23.9122 24.2385 23.9122H21.2492V26.9017C21.2492 27.592 20.6895 28.1517 19.9992 28.1517C19.3088 28.1517 18.7492 27.592 18.7492 26.9017V23.9122H15.7598C15.0694 23.9122 14.5098 23.3525 14.5098 22.6622C14.5098 21.9718 15.0694 21.4122 15.7598 21.4122H18.7492V18.4229C18.7492 17.7325 19.3088 17.1729 19.9992 17.1729Z"/>
</svg>
