<svg t="1600762291528" class="icon" viewBox="0 0 1024 1024" version="1.1" xmlns="http://www.w3.org/2000/svg" p-id="8642" width="128" height="128"><path d="M342.193548 234.322581a169.806452 169.806452 0 1 0 339.612904 0 169.806452 169.806452 0 1 0-339.612904 0Z" p-id="8643"></path><path d="M357.677419 672c-31.483871-54.709677-88.774194-85.16129-147.096774-85.16129-28.903226 0-57.806452 7.225806-84.645161 22.709677-81.548387 46.967742-108.903226 150.709677-62.451613 232.258065 31.483871 54.709677 88.774194 85.16129 147.096774 85.16129 28.903226 0 57.806452-7.225806 84.645161-22.709677 81.548387-46.967742 109.419355-151.225806 62.451613-232.258065zM898.580645 609.548387c-26.83871-15.483871-55.741935-22.709677-84.645161-22.709677-58.83871 0-115.612903 30.451613-147.096774 85.16129-46.967742 81.548387-19.096774 185.290323 62.451613 232.258065 26.83871 15.483871 55.741935 22.709677 84.645161 22.709677 58.83871 0 115.612903-30.451613 147.096774-85.16129 46.967742-81.032258 19.096774-185.290323-62.451613-232.258065zM768.516129 535.741935c14.967742-3.096774 29.935484-4.645161 45.419355-4.645161 26.322581 0 52.645161 4.645161 77.419355 13.935484-9.806452-113.032258-69.16129-212.129032-156.387097-275.096774-6.709677 42.322581-25.290323 81.032258-52.645161 112.516129 44.903226 38.709677 76.387097 92.387097 86.193548 153.290322zM210.064516 531.096774c15.483871 0 30.451613 1.548387 45.419355 4.645161 10.322581-60.903226 41.290323-114.580645 86.193548-153.806451C314.83871 350.967742 295.741935 312.258065 289.032258 269.935484c-87.225806 62.967742-146.580645 162.064516-156.387097 275.096774 24.774194-8.774194 51.096774-13.935484 77.419355-13.935484zM598.193548 824.258065c-26.83871 9.290323-55.741935 14.967742-86.193548 14.967741s-59.354839-5.16129-86.193548-14.967741c-12.387097 40.258065-35.612903 75.870968-67.096775 103.225806 46.967742 20.645161 99.096774 32.516129 153.290323 32.516129 54.709677 0 106.322581-11.870968 153.290323-32.516129-31.483871-27.354839-54.709677-62.967742-67.096775-103.225806z" p-id="8644"></path></svg>