<?xml version="1.0" encoding="UTF-8"?>
<svg width="16px" height="16px" viewBox="0 0 16 16" version="1.1" xmlns="http://www.w3.org/2000/svg" xmlns:xlink="http://www.w3.org/1999/xlink">
    <title>审核</title>
    <g id="门户系统PC端" stroke="none" stroke-width="1" fill="none" fill-rule="evenodd">
        <g id="运营管理系统工作台" transform="translate(-526.000000, -149.000000)" fill-rule="nonzero">
            <g id="审核" transform="translate(526.000000, 149.000000)">
                <rect id="矩形" fill="#000000" opacity="0" x="0" y="0" width="16" height="16"></rect>
                <path d="M14.2253573,13.9562475 L12.3441757,12.0728463 C12.8333094,11.4075529 13.1228104,10.586491 13.1228104,9.69890619 C13.1228104,7.48603592 11.3245988,5.68563672 9.11437925,5.68563672 C6.90415969,5.68563672 5.10601197,7.48601995 5.10601197,9.69890619 C5.10601197,11.9118084 6.90415967,13.7121916 9.11437923,13.7121916 C10.0008942,13.7121916 10.8209661,13.4223393 11.485477,12.9326148 L13.3666746,14.816016 C13.4852695,14.9346587 13.6406068,14.9940279 13.7960239,14.9940279 C13.9514571,14.9940279 14.1067784,14.9346587 14.2253732,14.816 C14.4624671,14.5785389 14.4624671,14.1936288 14.2253573,13.9562475 Z M9.11437923,12.7243593 C7.44815967,12.7243593 6.09266267,11.3671218 6.09266267,9.69890619 C6.09266267,8.03069063 7.44815967,6.67346906 9.11437923,6.67346906 C10.7805828,6.67346906 12.1361756,8.03067466 12.1361756,9.69890619 C12.1361756,11.3671377 10.7805828,12.7243593 9.11437923,12.7243593 Z M3.92523753,9.86506986 C3.92523753,7.03243114 6.21868264,4.73612775 9.04779242,4.73612775 C10.7802954,4.73612775 12.3119202,5.59726947 13.238978,6.91538523 L13.238978,1.94005589 C13.238978,1.42462275 12.8212375,1.00598803 12.3059321,1.00598803 L2.5298523,1.00598803 C2.01457884,1.00598803 1.59680639,1.42417566 1.59680639,1.94003992 L1.59680639,14.0599281 C1.59680639,14.5753773 2.01454691,14.994012 2.5298523,14.994012 L9.04779242,14.994012 C6.21868264,14.994012 3.92523753,12.6977086 3.92523753,9.86506986 Z M3.45956088,2.87105789 C3.45956088,2.61354092 3.66805589,2.40479042 3.92525348,2.40479042 L10.9105629,2.40479042 C11.1677445,2.40479042 11.3762555,2.61354092 11.3762555,2.87105789 C11.3762555,3.12855889 11.1677605,3.33732536 10.9105629,3.33732536 L3.92523753,3.33732536 C3.66805589,3.33732536 3.45956088,3.12855888 3.45956088,2.87105789 Z" id="形状" fill="#1E65F0"></path>
            </g>
        </g>
    </g>
</svg>