<svg xmlns="http://www.w3.org/2000/svg" viewBox="0 0 41.93 51.96"><defs><style>.cls-1{fill:#fff;}</style></defs><title>logo-white</title><g id="图层_2" data-name="图层 2"><g id="图层_1-2" data-name="图层 1"><path class="cls-1" d="M22.23,0c.32,0,.63.09.95.12A23.49,23.49,0,0,1,35.29,4.41a16.89,16.89,0,0,1,3.84,3.8,14.27,14.27,0,0,1,2.75,7.15,12.9,12.9,0,0,1-2.31,8.47,1.22,1.22,0,0,1-.16.18l-1.95-1.35q-5.93-4.12-11.85-8.27a2.54,2.54,0,0,0-2-.47,11,11,0,0,1-1.14.13,1.07,1.07,0,0,1-1-.5c-.16-.23-.3-.47-.47-.69a.84.84,0,0,0-1.1-.33,3.83,3.83,0,0,0-.78.4L3,23.71,2.54,24c-.07-.1-.14-.19-.19-.28A14.53,14.53,0,0,1,.06,17.38.64.64,0,0,0,0,17.2V15.49a.64.64,0,0,0,.06-.18,14.11,14.11,0,0,1,2.63-6.9A16.51,16.51,0,0,1,6.47,4.59,23.66,23.66,0,0,1,18.91.12c.31,0,.61-.08.92-.12ZM15,8.72a1.21,1.21,0,0,1-.27,0L10.81,9c-1.28.08-2.55.14-3.82.24a2.9,2.9,0,0,0-1.61.89l.31,0,5,.14,4.33.09c.22,0,.38.06.44.31a1,1,0,0,0,.87.78,4.23,4.23,0,0,0,.94,0c.79-.15,1.57-.35,2.37-.52a10.22,10.22,0,0,1,1.45-.25c1.15-.08,2.3-.12,3.45-.16L31,10.43l4.2-.09A2.63,2.63,0,0,0,37,9.39c-2.89-.31-5.74-.43-8.56-.85a.81.81,0,0,1,.2-.14c.65-.38,1.31-.74,1.93-1.15a.76.76,0,0,0-.09-1.37,5.85,5.85,0,0,1-.71-.35,2.3,2.3,0,0,0-2.35-.14C25,6.3,22.54,7.16,20.11,8a1.4,1.4,0,0,1-1.82-.56c-.54-.7-1.11-1.37-1.68-2a.87.87,0,0,0-.81-.34L15,5.2a.51.51,0,0,0-.49.64c0,.2.06.39.09.59C14.73,7.19,14.87,7.94,15,8.72Z"/><path class="cls-1" d="M33.3,25.72c-.22.15-23.5.14-23.83,0a2.6,2.6,0,0,1,.27-.36c.71-.71,1.42-1.41,2.12-2.13a1.22,1.22,0,0,1,1-.4H25.7c.21,0,.43,0,.73-.06-.22-.33-.38-.59-.56-.84-.64-.87-.4-.8-1.58-.8H13.75l.23-.26,2.07-2.09a.92.92,0,0,1,.7-.26c2.11,0,4.23,0,6.34,0l.39,0c-.32-.47-.59-.9-.91-1.29A1,1,0,0,0,21.7,17H18.24l-.4,0a4,4,0,0,1,1.59-1.65,3.1,3.1,0,0,1,3.74.52c.85.81,1.68,1.66,2.52,2.48L33,25.46A2.91,2.91,0,0,0,33.3,25.72Z"/><path class="cls-1" d="M14.76,51.58V38.33h5.58a8.93,8.93,0,0,1,3.19.51,5,5,0,0,1,3.16,3.47,9,9,0,0,1-.14,5.55,5.2,5.2,0,0,1-4,3.5,12.56,12.56,0,0,1-2.38.24c-1.71,0-3.43,0-5.14,0Zm3.34-6.66h0c0,1.17,0,2.34,0,3.51,0,.19,0,.32.27.31a24.67,24.67,0,0,0,2.72-.17,2.8,2.8,0,0,0,2.54-2.67,15.27,15.27,0,0,0,0-2.53,1.91,1.91,0,0,0-1.08-1.6,4.66,4.66,0,0,0-.95-.4,10.27,10.27,0,0,0-3.08-.29c-.36,0-.41.05-.41.41Z"/><path class="cls-1" d="M4.85,51.55H1.91c-.37,0-.4,0-.4-.41V38.91c0-.56,0-.57.58-.56,1.71,0,3.41,0,5.11,0A5.59,5.59,0,0,1,11,39.77a3.69,3.69,0,0,1,1.16,3.29,4.07,4.07,0,0,1-2,3.23l-.1.07,2.63,5.2-.34,0-3,0a.53.53,0,0,1-.53-.34c-.66-1.33-1.34-2.65-2-4a.65.65,0,0,0-.71-.44,8.61,8.61,0,0,1-.88,0c-.37,0-.42,0-.42.4v4.29Zm0-7.49a5.16,5.16,0,0,0,.53,0A8.57,8.57,0,0,0,8,43.87a1.44,1.44,0,0,0,1-1.61,1.37,1.37,0,0,0-1.25-1.11C6.82,41.09,6,41.07,5.11,41c-.19,0-.25.07-.25.25v2.77Z"/><path class="cls-1" d="M35.34,28.28c-7.88,5.81-20.83,5.81-28.71,0Z"/><path class="cls-1" d="M40.39,48.46v.34c0,.8,0,1.6,0,2.4,0,.21,0,.34-.29.37a17.19,17.19,0,0,1-3.5.37,9,9,0,0,1-6.29-2.69,6.28,6.28,0,0,1,.75-9.33,8.68,8.68,0,0,1,4.3-1.84,13.89,13.89,0,0,1,4.77.1c.2,0,.3.12.3.34,0,.85,0,1.71,0,2.57a1.48,1.48,0,0,1,0,.19c-.7-.1-1.38-.22-2.07-.28a6.67,6.67,0,0,0-4.51,1.07,3.47,3.47,0,0,0-.43,5.42,5.14,5.14,0,0,0,2.75,1.32A8,8,0,0,0,40,48.55,3.23,3.23,0,0,1,40.39,48.46Z"/></g></g></svg>